<svg width="17" height="17" viewBox="0 0 17 17" fill="none" xmlns="http://www.w3.org/2000/svg">
<path d="M6.91208 1.67335C6.97696 1.68365 7.03918 1.70664 7.09518 1.741C7.15118 1.77536 7.19985 1.82042 7.23842 1.87361C7.277 1.92679 7.30471 1.98706 7.31998 2.05096C7.33525 2.11486 7.33777 2.18114 7.32741 2.24601L6.80675 5.50001H11.1267L11.6734 2.08801C11.6988 1.96131 11.7723 1.84936 11.8784 1.77564C11.9846 1.70191 12.1151 1.67215 12.2427 1.69258C12.3703 1.71302 12.4851 1.78206 12.5629 1.88524C12.6407 1.98842 12.6755 2.11771 12.6601 2.24601L12.1401 5.50001H14.6667C14.7994 5.50001 14.9265 5.55269 15.0203 5.64646C15.1141 5.74023 15.1667 5.86741 15.1667 6.00001C15.1667 6.13262 15.1141 6.2598 15.0203 6.35357C14.9265 6.44734 14.7994 6.50001 14.6667 6.50001H11.9801L11.3401 10.5H14.0001C14.1327 10.5 14.2599 10.5527 14.3536 10.6465C14.4474 10.7402 14.5001 10.8674 14.5001 11C14.5001 11.1326 14.4474 11.2598 14.3536 11.3536C14.2599 11.4473 14.1327 11.5 14.0001 11.5H11.1801L10.6601 14.746C10.6347 14.8727 10.5612 14.9847 10.4551 15.0584C10.3489 15.1321 10.2184 15.1619 10.0908 15.1414C9.96317 15.121 9.84843 15.052 9.77063 14.9488C9.69282 14.8456 9.65798 14.7163 9.67341 14.588L10.1667 11.5H5.84675L5.32674 14.746C5.30134 14.8727 5.22787 14.9847 5.12174 15.0584C5.0156 15.1321 4.88504 15.1619 4.75744 15.1414C4.62984 15.121 4.5151 15.052 4.43729 14.9488C4.35948 14.8456 4.32464 14.7163 4.34008 14.588L4.83341 11.5H2.33008C2.19747 11.5 2.07029 11.4473 1.97652 11.3536C1.88276 11.2598 1.83008 11.1326 1.83008 11C1.83008 10.8674 1.88276 10.7402 1.97652 10.6465C2.07029 10.5527 2.19747 10.5 2.33008 10.5H4.99341L5.63341 6.50001H3.00008C2.86747 6.50001 2.74029 6.44734 2.64652 6.35357C2.55276 6.2598 2.50008 6.13262 2.50008 6.00001C2.50008 5.86741 2.55276 5.74023 2.64652 5.64646C2.74029 5.55269 2.86747 5.50001 3.00008 5.50001H5.79341L6.34008 2.08801C6.36105 1.95723 6.43306 1.84011 6.5403 1.76236C6.64755 1.68462 6.78125 1.6526 6.91208 1.67335ZM10.3274 10.5L10.9674 6.50001H6.64675L6.00675 10.5H10.3274Z" fill="#F5F5F5"/>
</svg>
