<svg width="25" height="24" viewBox="0 0 25 24" fill="none" xmlns="http://www.w3.org/2000/svg">
<path d="M11.958 3C12.2564 3 12.5425 3.11853 12.7535 3.3295C12.9645 3.54048 13.083 3.82663 13.083 4.125V10.5H19.458C19.7564 10.5 20.0425 10.6185 20.2535 10.8295C20.4645 11.0405 20.583 11.3266 20.583 11.625C20.583 11.9234 20.4645 12.2095 20.2535 12.4205C20.0425 12.6315 19.7564 12.75 19.458 12.75H13.083V19.125C13.083 19.4234 12.9645 19.7095 12.7535 19.9205C12.5425 20.1315 12.2564 20.25 11.958 20.25C11.6596 20.25 11.3735 20.1315 11.1625 19.9205C10.9515 19.7095 10.833 19.4234 10.833 19.125V12.75H4.45801C4.15964 12.75 3.87349 12.6315 3.66251 12.4205C3.45153 12.2095 3.33301 11.9234 3.33301 11.625C3.33301 11.3266 3.45153 11.0405 3.66251 10.8295C3.87349 10.6185 4.15964 10.5 4.45801 10.5H10.833V4.125C10.833 3.82663 10.9515 3.54048 11.1625 3.3295C11.3735 3.11853 11.6596 3 11.958 3Z" fill="#F5F5F5"/>
</svg>
