<svg width="21" height="20" viewBox="0 0 21 20" fill="none" xmlns="http://www.w3.org/2000/svg">
<path d="M10.5 17.5C9.01664 17.5 7.56659 17.0601 6.33323 16.236C5.09986 15.4119 4.13856 14.2406 3.57091 12.8701C3.00325 11.4997 2.85472 9.99168 3.14411 8.53683C3.4335 7.08197 4.14781 5.7456 5.1967 4.6967C6.2456 3.64781 7.58197 2.9335 9.03683 2.64411C10.4917 2.35472 11.9997 2.50325 13.3701 3.07091C14.7406 3.63856 15.9119 4.59986 16.736 5.83323C17.5601 7.06659 18 8.51664 18 10C18 11.9891 17.2098 13.8968 15.8033 15.3033C14.3968 16.7098 12.4891 17.5 10.5 17.5ZM10.5 3.75C9.26387 3.75 8.0555 4.11656 7.02769 4.80332C5.99988 5.49008 5.1988 6.46619 4.72576 7.60823C4.25271 8.75027 4.12894 10.0069 4.3701 11.2193C4.61125 12.4317 5.20651 13.5453 6.08059 14.4194C6.95466 15.2935 8.06831 15.8888 9.28069 16.1299C10.4931 16.3711 11.7497 16.2473 12.8918 15.7742C14.0338 15.3012 15.0099 14.5001 15.6967 13.4723C16.3834 12.4445 16.75 11.2361 16.75 10C16.75 8.3424 16.0915 6.75269 14.9194 5.58059C13.7473 4.40848 12.1576 3.75 10.5 3.75Z" fill="#F5F5F5"/>
<path d="M13 10.625H10.5C10.3349 10.6228 10.1772 10.5563 10.0604 10.4395C9.9437 10.3228 9.87716 10.1651 9.875 9.99998V5.83331C9.875 5.66755 9.94085 5.50858 10.0581 5.39137C10.1753 5.27416 10.3342 5.20831 10.5 5.20831C10.6658 5.20831 10.8247 5.27416 10.9419 5.39137C11.0592 5.50858 11.125 5.66755 11.125 5.83331V9.37498H13C13.1658 9.37498 13.3247 9.44083 13.4419 9.55804C13.5592 9.67525 13.625 9.83422 13.625 9.99998C13.625 10.1657 13.5592 10.3247 13.4419 10.4419C13.3247 10.5591 13.1658 10.625 13 10.625Z" fill="#F5F5F5"/>
</svg>
