<svg width="32" height="32" viewBox="0 0 32 32" fill="none" xmlns="http://www.w3.org/2000/svg">
<path d="M15.9337 24C16.4003 24 16.795 23.8387 17.1177 23.516C17.4403 23.1933 17.6012 22.7991 17.6003 22.3333C17.6003 21.8667 17.4394 21.472 17.1177 21.1493C16.7959 20.8267 16.4012 20.6658 15.9337 20.6667C15.467 20.6667 15.0728 20.828 14.751 21.1507C14.4292 21.4733 14.2679 21.8676 14.267 22.3333C14.267 22.8 14.4283 23.1947 14.751 23.5173C15.0737 23.84 15.4679 24.0009 15.9337 24ZM14.7337 18.8667H17.2003C17.2003 18.1333 17.2839 17.5556 17.451 17.1333C17.6181 16.7111 18.0901 16.1333 18.867 15.4C19.4448 14.8222 19.9003 14.272 20.2337 13.7493C20.567 13.2267 20.7337 12.5991 20.7337 11.8667C20.7337 10.6222 20.2781 9.66667 19.367 9C18.4559 8.33333 17.3781 8 16.1337 8C14.867 8 13.8394 8.33333 13.051 9C12.2625 9.66667 11.7123 10.4667 11.4003 11.4L13.6003 12.2667C13.7114 11.8667 13.9617 11.4333 14.351 10.9667C14.7403 10.5 15.3345 10.2667 16.1337 10.2667C16.8448 10.2667 17.3781 10.4613 17.7337 10.8507C18.0892 11.24 18.267 11.6676 18.267 12.1333C18.267 12.5778 18.1337 12.9947 17.867 13.384C17.6003 13.7733 17.267 14.1342 16.867 14.4667C15.8892 15.3333 15.2892 15.9889 15.067 16.4333C14.8448 16.8778 14.7337 17.6889 14.7337 18.8667ZM16.0003 29.3333C14.1559 29.3333 12.4225 28.9836 10.8003 28.284C9.1781 27.5844 7.76699 26.6342 6.56699 25.4333C5.36699 24.2333 4.41721 22.8222 3.71766 21.2C3.0181 19.5778 2.66788 17.8444 2.66699 16C2.66699 14.1556 3.01721 12.4222 3.71766 10.8C4.4181 9.17778 5.36788 7.76667 6.56699 6.56667C7.76699 5.36667 9.1781 4.41689 10.8003 3.71733C12.4225 3.01778 14.1559 2.66756 16.0003 2.66667C17.8448 2.66667 19.5781 3.01689 21.2003 3.71733C22.8225 4.41778 24.2337 5.36756 25.4337 6.56667C26.6337 7.76667 27.5839 9.17778 28.2843 10.8C28.9848 12.4222 29.3345 14.1556 29.3337 16C29.3337 17.8444 28.9834 19.5778 28.283 21.2C27.5825 22.8222 26.6328 24.2333 25.4337 25.4333C24.2337 26.6333 22.8225 27.5836 21.2003 28.284C19.5781 28.9844 17.8448 29.3342 16.0003 29.3333ZM16.0003 26.6667C18.9781 26.6667 21.5003 25.6333 23.567 23.5667C25.6337 21.5 26.667 18.9778 26.667 16C26.667 13.0222 25.6337 10.5 23.567 8.43333C21.5003 6.36667 18.9781 5.33333 16.0003 5.33333C13.0225 5.33333 10.5003 6.36667 8.43366 8.43333C6.36699 10.5 5.33366 13.0222 5.33366 16C5.33366 18.9778 6.36699 21.5 8.43366 23.5667C10.5003 25.6333 13.0225 26.6667 16.0003 26.6667Z" fill="#F5F5F5"/>
</svg>
