<svg width="26" height="28" viewBox="0 0 26 28" fill="none" xmlns="http://www.w3.org/2000/svg">
<path fill-rule="evenodd" clip-rule="evenodd" d="M9.00033 2.29733C9.00028 1.99535 9.10274 1.70229 9.29094 1.46612C9.47915 1.22996 9.74195 1.06468 10.0363 0.997333C11.987 0.553127 14.0127 0.554038 15.963 1C16.2576 1.06708 16.5207 1.23225 16.7092 1.46844C16.8977 1.70463 17.0003 1.99783 17.0003 2.3V4.76267C17.0003 4.99671 17.062 5.22663 17.179 5.42932C17.296 5.63201 17.4643 5.80032 17.667 5.91734C17.8697 6.03436 18.0996 6.09597 18.3337 6.09597C18.5677 6.09597 18.7976 6.03436 19.0003 5.91733L21.135 4.684C21.3969 4.53283 21.7024 4.47517 22.0013 4.52048C22.3003 4.56578 22.575 4.71136 22.7803 4.93333C24.1373 6.40159 25.1491 8.15452 25.7417 10.064C25.8312 10.3528 25.8199 10.6634 25.7097 10.9449C25.5994 11.2264 25.3968 11.4621 25.135 11.6133L23.0003 12.8453C22.7977 12.9624 22.6294 13.1307 22.5123 13.3334C22.3953 13.536 22.3337 13.766 22.3337 14C22.3337 14.234 22.3953 14.464 22.5123 14.6666C22.6294 14.8693 22.7977 15.0376 23.0003 15.1547L25.1337 16.3853C25.3952 16.5365 25.5976 16.772 25.7078 17.0532C25.818 17.3344 25.8295 17.6447 25.7403 17.9333C25.1518 19.8455 24.1401 21.6005 22.7803 23.068C22.5748 23.2898 22.3001 23.4351 22.0011 23.4801C21.7021 23.5252 21.3967 23.4673 21.135 23.316L19.0003 22.0827C18.7976 21.9656 18.5677 21.904 18.3337 21.904C18.0996 21.904 17.8697 21.9656 17.667 22.0827C17.4643 22.1997 17.296 22.368 17.179 22.5707C17.062 22.7734 17.0003 23.0033 17.0003 23.2373V25.704C17 26.0059 16.8972 26.2988 16.7088 26.5347C16.5203 26.7707 16.2574 26.9356 15.963 27.0027C14.0123 27.4468 11.9866 27.4459 10.0363 27C9.74195 26.9327 9.47915 26.7674 9.29094 26.5312C9.10274 26.295 9.00028 26.002 9.00033 25.7V23.2373C9.00032 23.0033 8.93871 22.7734 8.82168 22.5707C8.70466 22.368 8.53634 22.1997 8.33365 22.0827C8.13096 21.9656 7.90104 21.904 7.66699 21.904C7.43294 21.904 7.20302 21.9656 7.00033 22.0827L4.86566 23.316C4.60378 23.4672 4.29829 23.5248 3.99933 23.4795C3.70036 23.4342 3.42567 23.2886 3.22033 23.0667C2.54386 22.335 1.95129 21.53 1.45366 20.6667C0.954917 19.8038 0.554206 18.8879 0.258997 17.936C0.169487 17.6472 0.180774 17.3366 0.291006 17.0551C0.401238 16.7736 0.60387 16.5379 0.865664 16.3867L2.999 15.1547C3.20167 15.0376 3.36998 14.8693 3.48699 14.6666C3.604 14.464 3.66561 14.234 3.66561 14C3.66561 13.766 3.604 13.536 3.48699 13.3334C3.36998 13.1307 3.20167 12.9624 2.999 12.8453L0.868331 11.6147C0.606578 11.4637 0.40386 11.2283 0.293396 10.9471C0.182933 10.6658 0.171274 10.3554 0.260331 10.0667C0.849047 8.15501 1.86075 6.40049 3.22033 4.93333C3.42559 4.71168 3.70003 4.5663 3.9987 4.521C4.29738 4.4757 4.60258 4.53317 4.86433 4.684L7.00033 5.91733C7.20302 6.03436 7.43294 6.09597 7.66699 6.09597C7.90104 6.09597 8.13096 6.03436 8.33365 5.91734C8.53634 5.80032 8.70466 5.63201 8.82168 5.42932C8.93871 5.22663 9.00032 4.99671 9.00033 4.76267V2.29733ZM13.0003 18C14.0612 18 15.0786 17.5786 15.8288 16.8284C16.5789 16.0783 17.0003 15.0609 17.0003 14C17.0003 12.9391 16.5789 11.9217 15.8288 11.1716C15.0786 10.4214 14.0612 10 13.0003 10C11.9395 10 10.922 10.4214 10.1719 11.1716C9.42176 11.9217 9.00033 12.9391 9.00033 14C9.00033 15.0609 9.42176 16.0783 10.1719 16.8284C10.922 17.5786 11.9395 18 13.0003 18Z" fill="#F5F5F5"/>
</svg>
